<svg width="86" height="21" viewBox="0 0 86 21" fill="none" xmlns="http://www.w3.org/2000/svg"><path d="M26.088 8.38686C27.0646 8.38686 27.8563 7.59486 27.8563 6.61803C27.8563 5.64103 27.0646 4.8492 26.088 4.8492C25.1113 4.8492 24.3196 5.64103 24.3196 6.61803C24.3196 7.59486 25.1113 8.38686 26.088 8.38686V8.38686ZM84.448 14.4304C84.179 14.2412 83.9713 14.2099 83.799 14.5772C80.829 21.0099 75.824 17.7999 76.3211 18.0824C77.4313 17.5745 80.3511 15.2329 79.9098 11.9995C79.6418 10.0235 77.9458 9.14703 76.1456 9.46086C73.0033 10.0087 71.8473 13.398 72.4358 16.3987C72.5388 16.914 72.7228 17.339 72.9066 17.7554C69.3556 20.643 67.9455 15.1704 67.7855 14.5164C67.7791 14.4814 70.5273 12.1907 71.2916 6.7322C72.0928 1.01136 70.2678 -0.0303038 68.4016 0.0021962C64.9483 0.0623629 64.0151 7.27753 65.2688 13.2909C65.1638 13.3182 64.6751 13.5889 63.89 13.6192C63.325 11.8414 60.9108 10.283 60.279 10.8835C58.6976 12.3857 60.6625 15.3225 62.045 15.5529C61.2145 20.668 56.0206 19.4012 56.9875 12.9927C58.6788 9.85186 59.9651 5.1817 59.7356 2.36236C59.6543 1.3642 58.9163 0.0268629 57.2473 0.0931962C54.0371 0.220196 53.6881 7.43736 54.0645 12.5597C54.0458 12.4335 53.8671 13.182 52.5516 13.5542C52.2405 11.827 49.4595 10.0934 48.8048 10.9269C47.5793 12.4869 49.7031 15.2684 50.7091 15.4624C49.8786 20.5774 44.685 19.3105 45.6518 12.902C47.3431 9.76136 48.6293 5.0912 48.3998 2.27186C48.3185 1.27353 47.5806 -0.0638038 45.9115 0.00236286C42.7013 0.12953 42.3523 7.3467 42.7286 12.469C42.7098 12.3409 42.527 13.114 41.1578 13.48C41.112 11.2392 38.3208 10.2117 37.6503 10.9267C36.4553 12.2012 37.924 14.8162 39.2826 15.4624C38.4521 20.5774 33.2585 19.3105 34.2253 12.902C35.9166 9.76136 37.203 5.0912 36.9733 2.27186C36.8921 1.27353 36.1541 -0.0638038 34.485 0.00236286C31.275 0.12953 31.0166 7.70953 31.393 12.8317C30.3356 17.3619 26.7898 23.0192 27.2505 11.6864C27.296 10.8914 27.3456 10.5895 26.9493 10.2919C26.6523 10.0605 25.977 10.1719 25.6078 10.181C25.1591 10.199 25.0466 10.4615 24.9475 10.8584C24.7165 11.883 24.675 12.8764 24.642 14.2317C24.6203 14.8657 24.5695 15.1615 24.3253 16.026C24.0815 16.8904 22.6903 18.4702 21.9286 18.206C20.872 17.8427 21.2186 14.8597 21.4166 12.8102C21.5816 11.1905 21.0533 10.4632 19.6996 10.1987C18.9071 10.0335 18.4256 10.0589 17.6003 9.7987C16.8198 9.5527 16.6433 8.07636 14.9786 8.56836C14.0681 8.8377 14.6535 10.7669 14.4346 12.1967C13.3588 19.2302 11.1203 19.4234 10.0818 16.0067C14.759 4.55153 11.4348 0.0355295 9.48896 0.0355295C7.46229 0.0355295 5.14563 1.43153 6.12663 10.3635C5.64963 10.2244 5.50296 10.1494 4.98079 10.1494C2.02763 10.1494 0.015625 12.5367 0.015625 15.4817C0.015625 18.4267 2.02779 20.8142 4.98096 20.8142C6.72429 20.8142 7.94829 20.0214 8.87529 18.7949C9.48013 19.661 10.2166 20.8275 11.5635 20.775C15.578 20.6187 16.7455 12.3839 16.8833 11.9245C17.3125 11.9907 17.7185 12.1159 18.1148 12.182C18.7751 12.2812 18.8231 12.5425 18.8081 13.2067C18.6331 18.8074 19.6666 20.7684 22.011 20.7684C23.3171 20.7684 24.4813 19.485 25.2833 18.5674C25.8823 19.8037 26.8368 20.7305 28.1173 20.7682C31.2201 20.8454 32.4081 15.8999 32.2998 16.5507C32.2148 17.0614 33.3065 20.7404 36.5008 20.7537C40.4576 20.7704 41.1931 16.419 41.2808 15.6902C41.2918 15.5452 41.2966 15.5602 41.2808 15.6902L41.2778 15.7344C42.534 15.5007 43.1821 14.8272 43.1821 14.8272C43.1821 14.8272 44.1908 20.8214 47.9271 20.7539C51.8071 20.6835 52.5388 16.7502 52.6348 15.9832C52.6475 15.8012 52.655 15.8225 52.6348 15.9832C52.6343 15.9907 52.6338 15.9982 52.6333 16.0057C54.1255 15.4629 54.518 14.918 54.518 14.918C54.518 14.918 55.3196 20.793 59.263 20.8444C62.777 20.8904 64.0793 17.2919 64.087 15.7857C64.6796 15.792 65.776 15.434 65.7503 15.4137C65.7503 15.4137 67.0375 20.5504 70.632 20.8142C72.3196 20.938 73.5856 19.8645 74.3073 19.3749C76.0033 20.7484 81.6508 22.5027 85.2168 16.4569C85.7201 15.5892 84.638 14.5642 84.448 14.4304V14.4304ZM4.83846 18.8199C3.11546 18.8199 2.01063 17.2267 2.01063 15.5089C2.01063 13.7912 3.02479 12.198 4.74779 12.198C5.52313 12.198 5.95446 12.2834 6.55829 12.8085C6.66779 13.24 6.97813 14.2354 7.12913 14.6874C7.33146 15.2922 7.57212 15.807 7.81479 16.3674C7.46812 17.8045 6.33163 18.8199 4.83846 18.8199V18.8199ZM9.03713 12.859C8.96546 12.7449 8.98046 12.815 8.90029 12.7072C8.58446 11.848 7.97579 9.93036 7.90529 7.7522C7.82563 5.2882 8.23629 2.40003 9.44696 2.40003C10.2673 2.40003 11.1391 8.25336 9.03696 12.859H9.03713ZM33.2973 10.2917C33.103 8.82953 33.0928 2.3112 34.6576 2.4907C35.5216 2.8407 34.1098 8.99153 33.2973 10.2917ZM44.7238 10.2917C44.5295 8.82953 44.5193 2.3112 46.0841 2.4907C46.9481 2.8407 45.5363 8.99153 44.7238 10.2917ZM56.0596 10.3825C55.8651 8.9202 55.8551 2.40186 57.4198 2.58136C58.2838 2.93136 56.872 9.08236 56.0596 10.3825ZM68.5743 2.1092C70.005 1.96086 69.946 8.20853 67.0743 12.1529C66.704 10.7272 66.1361 2.5987 68.5743 2.10903V2.1092ZM74.5876 15.5529C74.1281 13.2317 75.3155 11.7072 76.5395 11.54C76.9673 11.4717 77.5873 11.7489 77.711 12.267C77.9143 13.2435 77.6815 14.692 74.942 16.5299C74.946 16.5455 74.6901 16.0699 74.5878 15.5529H74.5876Z" fill="black"/></svg>