<svg xmlns="http://www.w3.org/2000/svg" xmlns:xlink="http://www.w3.org/1999/xlink" viewBox="0 0 2000 2000" width="2000" height="2000" preserveAspectRatio="xMidYMid meet" style="width: 100%; height: 100%; transform: translate3d(0px, 0px, 0px); content-visibility: visible;"><defs><clipPath id="__lottie_element_2"><rect width="2000" height="2000" x="0" y="0"/></clipPath><clipPath id="__lottie_element_4"><path d="M0,0 L2000,0 L2000,2000 L0,2000z"/></clipPath><g id="__lottie_element_7"><g style="display: block;" transform="matrix(1,0,0,1,1018.1420288085938,981.8579711914062)" opacity="1"><g opacity="1" transform="matrix(2,0,0,2,0,0)"><path fill="rgb(255,255,255)" fill-opacity="1" d=" M-78.32099914550781,26.618999481201172 C-78.32099914550781,26.618999481201172 42.645999908447266,-54.07099914550781 42.645999908447266,-54.07099914550781 C42.645999908447266,-54.07099914550781 71.57099914550781,-72.07099914550781 71.57099914550781,-72.07099914550781 C71.57099914550781,-72.07099914550781 53.42900085449219,-42.9109992980957 53.42900085449219,-42.9109992980957 C53.42900085449219,-42.9109992980957 -23.493999481201172,81.92900085449219 -23.493999481201172,81.92900085449219 C-23.493999481201172,81.92900085449219 -79.82099914550781,81.94599914550781 -79.82099914550781,81.94599914550781 C-79.82099914550781,81.94599914550781 -78.32099914550781,26.618999481201172 -78.32099914550781,26.618999481201172z"/></g></g></g><filter id="__lottie_element_13" filterUnits="objectBoundingBox" x="0%" y="0%" width="100%" height="100%"><feComponentTransfer in="SourceGraphic"><feFuncA type="table" tableValues="1.0 0.0"/></feComponentTransfer></filter><mask id="__lottie_element_7_2" mask-type="alpha"><g filter="url(#__lottie_element_13)"><rect width="2000" height="2000" x="0" y="0" fill="#ffffff" opacity="0"/><use xmlns:ns1="http://www.w3.org/1999/xlink" ns1:href="#__lottie_element_7"/></g></mask></defs><g clip-path="url(#__lottie_element_2)"><g style="display: block;" transform="matrix(1,0,0,1,1723.28466796875,1040)" opacity="0.9928810716730015"><g opacity="1" transform="matrix(2,0,0,2,0,0)"><path fill="rgb(255,255,255)" fill-opacity="1" d=" M-19.527000427246094,14.24899959564209 C-19.527000427246094,14.24899959564209 -36.49599838256836,14.24899959564209 -36.49599838256836,14.24899959564209 C-36.56800079345703,18.381000518798828 -35.63999938964844,22.468000411987305 -33.792999267578125,26.160999298095703 C-31.945999145507812,29.854000091552734 -29.232999801635742,33.04100036621094 -25.889999389648438,35.45000076293945 C-19.038000106811523,40.52199935913086 -9.897000312805176,42.9900016784668 1.3819999694824219,42.9900016784668 C7.513000011444092,43.112998962402344 13.61299991607666,42.07500076293945 19.36199951171875,39.93000030517578 C24.270999908447266,38.018001556396484 28.599000930786133,34.854000091552734 31.920000076293945,30.75 C34.926998138427734,26.73699951171875 36.5359992980957,21.840999603271484 36.499000549316406,16.819000244140625 C36.499000549316406,10.918999671936035 35.03499984741211,6.269000053405762 32.0890007019043,2.888000011444092 C28.93400001525879,-0.675000011920929 24.85300064086914,-3.2850000858306885 20.304000854492188,-4.6519999504089355 C14.402999877929688,-6.4679999351501465 8.333999633789062,-7.679999828338623 2.190000057220459,-8.270000457763672 C-3.197000026702881,-8.963000297546387 -7.11899995803833,-9.454000473022461 -9.409000396728516,-9.961000442504883 C-11.60200023651123,-10.321999549865723 -13.67300033569336,-11.220999717712402 -15.435999870300293,-12.581000328063965 C-16.25,-13.279999732971191 -16.882999420166016,-14.166000366210938 -17.281999588012695,-15.163999557495117 C-17.680999755859375,-16.16200065612793 -17.832000732421875,-17.242000579833984 -17.725000381469727,-18.312000274658203 C-17.749000549316406,-19.95800018310547 -17.320999145507812,-21.57900047302246 -16.486000061035156,-22.996000289916992 C-15.651000022888184,-24.413000106811523 -14.442999839782715,-25.570999145507812 -12.994999885559082,-26.343000411987305 C-9.218999862670898,-28.48200035095215 -4.916999816894531,-29.50200080871582 -0.5879999995231628,-29.28499984741211 C3.946000099182129,-29.422000885009766 8.404999732971191,-28.10099983215332 12.138999938964844,-25.514999389648438 C13.685999870300293,-24.44499969482422 14.993000030517578,-23.06100082397461 15.97599983215332,-21.45400047302246 C16.958999633789062,-19.847000122070312 17.594999313354492,-18.051000595092773 17.84600067138672,-16.18199920654297 C17.84600067138672,-16.18199920654297 34.933998107910156,-16.18199920654297 34.933998107910156,-16.18199920654297 C34.75199890136719,-20.079999923706055 33.6879997253418,-23.88599967956543 31.823999404907227,-27.309999465942383 C29.959999084472656,-30.733999252319336 27.344999313354492,-33.6870002746582 24.176000595092773,-35.94599914550781 C17.643999099731445,-40.52799987792969 8.991999626159668,-42.99599838256836 -1.4459999799728394,-42.99599838256836 C-7.375,-43.07899856567383 -13.260000228881836,-41.9630012512207 -18.75200080871582,-39.715999603271484 C-23.45800018310547,-37.678001403808594 -27.562999725341797,-34.45899963378906 -30.67099952697754,-30.367000579833984 C-33.534000396728516,-26.452999114990234 -35.027000427246094,-21.69700050354004 -34.91400146484375,-16.841999053955078 C-34.91400146484375,-11.262999534606934 -33.599998474121094,-7.001999855041504 -30.67099952697754,-3.7219998836517334 C-27.576000213623047,-0.36500000953674316 -23.621999740600586,2.0739998817443848 -19.240999221801758,3.328000068664551 C-13.319999694824219,5.014999866485596 -7.255000114440918,6.146999835968018 -1.1260000467300415,6.709000110626221 C2.8359999656677246,7.146999835968018 6.769999980926514,7.808000087738037 10.657999992370605,8.687000274658203 C12.916000366210938,9.190999984741211 15.031999588012695,10.196999549865723 16.85300064086914,11.628999710083008 C17.642000198364258,12.484999656677246 18.25200080871582,13.491999626159668 18.645000457763672,14.59000015258789 C19.038000106811523,15.687999725341797 19.20800018310547,16.854000091552734 19.14299964904785,18.018999099731445 C19.121999740600586,19.718000411987305 18.641000747680664,21.378000259399414 17.750999450683594,22.822999954223633 C16.861000061035156,24.26799964904785 15.595999717712402,25.441999435424805 14.092000007629395,26.2189998626709 C10.137999534606934,28.336999893188477 5.690999984741211,29.35300064086914 1.2139999866485596,29.160999298095703 C-4.829999923706055,29.160999298095703 -9.729000091552734,27.858999252319336 -13.482999801635742,25.069000244140625 C-15.23900032043457,23.840999603271484 -16.69499969482422,22.229999542236328 -17.742000579833984,20.356000900268555 C-18.788999557495117,18.48200035095215 -19.39900016784668,16.393999099731445 -19.527000427246094,14.24899959564209z"/></g></g><g style="display: block;" transform="matrix(1,0,0,1,1553.144775390625,1038)" opacity="0.9963823533854307"><g opacity="1" transform="matrix(2,0,0,2,0,0)"><path fill="rgb(255,255,255)" fill-opacity="1" d=" M5.183000087738037,-42 C14.89799976348877,-42 22.993000030517578,-38.92300033569336 29.13599967956543,-32.92100143432617 C35.29499816894531,-26.76799964904785 38.516998291015625,-17.03700065612793 38.5,-3.7950000762939453 C38.5,-3.7950000762939453 38.5,42 38.5,42 C38.5,42 20.87299919128418,42 20.87299919128418,42 C20.87299919128418,42 20.87299919128418,-2.742000102996826 20.87299919128418,-2.742000102996826 C20.87299919128418,-10.517000198364258 19.253999710083008,-16.68600082397461 15.866000175476074,-20.73200035095215 C12.477999687194824,-24.777999877929688 7.61899995803833,-26.902000427246094 1.1430000066757202,-26.902000427246094 C-1.9620000123977661,-27.054000854492188 -5.059000015258789,-26.47100067138672 -7.8979997634887695,-25.20199966430664 C-10.737000465393066,-23.933000564575195 -13.237000465393066,-22.01300048828125 -15.197999954223633,-19.59600067138672 C-19.086999893188477,-14.730999946594238 -21.02400016784668,-8.192999839782715 -21.02400016784668,0.16699999570846558 C-21.02400016784668,0.16699999570846558 -21.02400016784668,41.96699905395508 -21.02400016784668,41.96699905395508 C-21.02400016784668,41.96699905395508 -38.5,41.96699905395508 -38.5,41.96699905395508 C-38.5,41.96699905395508 -38.5,-41.029998779296875 -38.5,-41.029998779296875 C-38.5,-41.029998779296875 -23.29400062561035,-41.029998779296875 -23.29400062561035,-41.029998779296875 C-23.29400062561035,-41.029998779296875 -21.340999603271484,-30.16200065612793 -21.340999603271484,-30.16200065612793 C-15.197999954223633,-37.952999114990234 -6.301000118255615,-42 5.183000087738037,-42z"/></g></g><g style="display: block;" transform="matrix(1,0,0,1,1414.0152587890625,1039)" opacity="0.999619785714737"><g opacity="1" transform="matrix(2,0,0,2,0,0)"><path fill="rgb(255,255,255)" fill-opacity="1" d=" M23,-41.5 C23,-41.5 19.108999252319336,-41.5 19.108999252319336,-41.5 C12.60200023651123,-41.5 7.554999828338623,-40.362998962402344 3.815000057220459,-38.0890007019043 C-0.027000000700354576,-35.93899917602539 -3.2219998836517334,-32.80400085449219 -5.441999912261963,-29.010000228881836 C-5.441999912261963,-29.010000228881836 -7.4039998054504395,-41.5 -7.4039998054504395,-41.5 C-7.4039998054504395,-41.5 -23,-41.5 -23,-41.5 C-23,-41.5 -23,41.5 -23,41.5 C-23,41.5 -5.441999912261963,41.5 -5.441999912261963,41.5 C-5.441999912261963,41.5 -5.441999912261963,-0.16699999570846558 -5.441999912261963,-0.16699999570846558 C-5.683000087738037,-6.466000080108643 -3.9800000190734863,-12.687999725341797 -0.5619999766349792,-17.990999221801758 C2.674999952316284,-22.68899917602539 7.889999866485596,-25.131000518798828 15.20199966430664,-25.131000518798828 C15.20199966430664,-25.131000518798828 23,-25.131000518798828 23,-25.131000518798828 C23,-25.131000518798828 23,-41.5 23,-41.5z"/></g></g><g style="display: block;" transform="matrix(1,0,0,1,1261,1039)" opacity="1"><g opacity="1" transform="matrix(2,0,0,2,0,0)"><path fill="rgb(255,255,255)" fill-opacity="1" d=" M9.736000061035156,25.74799919128418 C12.807999610900879,24.43600082397461 15.545999526977539,22.451000213623047 17.743000030517578,19.940000534057617 C22.393999099731445,14.751999855041504 24.576000213623047,8.02400016784668 24.576000213623047,-0.05900000035762787 C24.576000213623047,-8.142000198364258 22.309999465942383,-14.668999671936035 17.743000030517578,-19.85700035095215 C15.559000015258789,-22.39699935913086 12.829999923706055,-24.416000366210938 9.758000373840332,-25.76300048828125 C6.685999870300293,-27.110000610351562 3.3489999771118164,-27.750999450683594 -0.004999999888241291,-27.638999938964844 C-3.3610000610351562,-27.780000686645508 -6.703000068664551,-27.150999069213867 -9.777000427246094,-25.802000045776367 C-12.85099983215332,-24.452999114990234 -15.572999954223633,-22.41900062561035 -17.735000610351562,-19.85700035095215 C-22.319000244140625,-14.668999671936035 -24.451000213623047,-8.175999641418457 -24.451000213623047,-0.05900000035762787 C-24.451000213623047,8.057999610900879 -22.134000778198242,14.70199966430664 -17.735000610351562,19.889999389648438 C-13.336000442504883,25.077999114990234 -7.4770002365112305,27.520999908447266 -0.004999999888241291,27.520999908447266 C3.3340001106262207,27.666000366210938 6.664000034332275,27.059999465942383 9.736000061035156,25.74799919128418z M-0.07199999690055847,42.5 C-7.7789998054504395,42.5 -15.380999565124512,40.724998474121094 -22.28499984741211,37.3120002746582 C-28.632999420166016,33.89500045776367 -33.84299850463867,28.707000732421875 -37.27899932861328,22.384000778198242 C-40.89899826049805,15.484000205993652 -42.691001892089844,7.775000095367432 -42.48400115966797,-0.008999999612569809 C-42.67399978637695,-7.690000057220459 -40.88199996948242,-15.289999961853027 -37.27899932861328,-22.08300018310547 C-33.85200119018555,-28.445999145507812 -28.642000198364258,-33.67900085449219 -22.28499984741211,-37.14500045776367 C-15.413000106811523,-40.66400146484375 -7.797999858856201,-42.5 -0.07199999690055847,-42.5 C7.6539998054504395,-42.5 15.270000457763672,-40.66400146484375 22.142000198364258,-37.14500045776367 C28.49799919128418,-33.68299865722656 33.70100021362305,-28.448999404907227 37.11800003051758,-22.08300018310547 C40.775001525878906,-15.305000305175781 42.625,-7.703999996185303 42.49100112915039,-0.008999999612569809 C42.643001556396484,7.789000034332275 40.79399871826172,15.498000144958496 37.11800003051758,22.384000778198242 C33.69499969482422,28.711000442504883 28.48900032043457,33.900001525878906 22.142000198364258,37.3120002746582 C15.23799991607666,40.724998474121094 7.635000228881836,42.5 -0.07199999690055847,42.5z"/></g></g><g style="display: block;" transform="matrix(1,0,0,1,1102,1010)" opacity="1"><g opacity="1" transform="matrix(2,0,0,2,0,0)"><path fill="rgb(255,255,255)" fill-opacity="1" d=" M-39,-57 C-39,-57 -39,56.983001708984375 -39,56.983001708984375 C-39,56.983001708984375 -21.43000030517578,57 -21.43000030517578,57 C-21.43000030517578,57 -21.43000030517578,35.667999267578125 -21.43000030517578,35.667999267578125 C-21.43000030517578,35.667999267578125 -6.629000186920166,20.030000686645508 -6.629000186920166,20.030000686645508 C-6.629000186920166,20.030000686645508 18.10700035095215,56.983001708984375 18.10700035095215,56.983001708984375 C18.10700035095215,56.983001708984375 39,56.983001708984375 39,56.983001708984375 C39,56.983001708984375 5.973999977111816,7.146999835968018 5.973999977111816,7.146999835968018 C5.973999977111816,7.146999835968018 36.96900177001953,-26.34600067138672 36.96900177001953,-26.34600067138672 C36.96900177001953,-26.34600067138672 16.6299991607666,-26.34600067138672 16.6299991607666,-26.34600067138672 C16.6299991607666,-26.34600067138672 -21.43000030517578,14.369999885559082 -21.43000030517578,14.369999885559082 C-21.43000030517578,14.369999885559082 -21.43000030517578,-57 -21.43000030517578,-57 C-21.43000030517578,-57 -39,-57 -39,-57z"/></g></g><g style="display: block;" transform="matrix(1,0,0,1,979,907)" opacity="1"><g opacity="1" transform="matrix(2,0,0,2,0,0)"><path fill="rgb(255,255,255)" fill-opacity="1" d=" M-16.5,-0.017000000923871994 C-9.432000160217285,3.6659998893737793 -3.6659998893737793,9.432000160217285 0.017000000923871994,16.5 C3.691999912261963,9.437999725341797 9.444999694824219,3.6730000972747803 16.5,-0.017000000923871994 C9.454999923706055,-3.7039999961853027 3.7039999961853027,-9.454999923706055 0.017000000923871994,-16.5 C-3.681999921798706,-9.45199966430664 -9.444999694824219,-3.7019999027252197 -16.5,-0.017000000923871994z"/></g></g><g style="display: block;" transform="matrix(1,0,0,1,978,1039)" opacity="1"><g opacity="1" transform="matrix(2,0,0,2,0,0)"><path fill="rgb(255,255,255)" fill-opacity="1" d=" M-9,41.5 C-9,41.5 -9,-41.5 -9,-41.5 C-9,-41.5 9,-41.5 9,-41.5 C9,-41.5 9,41.5 9,41.5 C9,41.5 -9,41.5 -9,41.5z"/></g></g><g style="display: block;" transform="matrix(1,0,0,1,857,1038)" opacity="1"><g opacity="1" transform="matrix(2,0,0,2,0,0)"><path fill="rgb(255,255,255)" fill-opacity="1" d=" M29.121000289916992,-32.917999267578125 C22.979999542236328,-38.92300033569336 14.88599967956543,-42 5.172999858856201,-42 C-6.258999824523926,-42 -15.20300006866455,-37.952999114990234 -21.361000061035156,-30.158000946044922 C-21.361000061035156,-30.158000946044922 -23.297000885009766,-41.029998779296875 -23.297000885009766,-41.029998779296875 C-23.297000885009766,-41.029998779296875 -38.5,-41.029998779296875 -38.5,-41.029998779296875 C-38.5,-41.029998779296875 -38.5,41.96699905395508 -38.5,41.96699905395508 C-38.5,41.96699905395508 -21.01099967956543,41.96699905395508 -21.01099967956543,41.96699905395508 C-21.01099967956543,41.96699905395508 -21.01099967956543,0.1509999930858612 -21.01099967956543,0.1509999930858612 C-21.01099967956543,-8.279000282287598 -19.073999404907227,-14.753000259399414 -15.185999870300293,-19.6200008392334 C-13.22700023651123,-22.038999557495117 -10.72700023651123,-23.961000442504883 -7.888999938964844,-25.231000900268555 C-5.051000118255615,-26.500999450683594 -1.9529999494552612,-27.082000732421875 1.1519999504089355,-26.929000854492188 C7.626999855041504,-26.929000854492188 12.649999618530273,-24.972000122070312 15.871000289916992,-20.756999969482422 C19.091999053955078,-16.54199981689453 20.87700080871582,-10.538000106811523 20.87700080871582,-2.759999990463257 C20.87700080871582,-2.759999990463257 20.87700080871582,42 20.87700080871582,42 C20.87700080871582,42 38.5,42 38.5,42 C38.5,42 38.5,-3.7300000190734863 38.5,-3.7300000190734863 C38.5,-17.027000427246094 35.262001037597656,-26.913000106811523 29.121000289916992,-32.917999267578125z"/></g></g><g style="display: block;" transform="matrix(1,0,0,1,660,1011)" opacity="1"><g opacity="1" transform="matrix(2,0,0,2,0,0)"><path fill="rgb(255,255,255)" fill-opacity="1" d=" M-26.207000732421875,-57.5 C-26.207000732421875,-57.5 -44.95000076293945,-57.5 -44.95000076293945,-57.5 C-44.95000076293945,-57.5 -45,7.644999980926514 -45,7.644999980926514 C-45,23.944000244140625 -41.08300018310547,36.327999114990234 -33.58599853515625,44.797000885009766 C-26.089000701904297,53.26599884033203 -14.90999984741211,57.5 -0.1850000023841858,57.5 C14.539999961853027,57.5 25.770000457763672,53.28300094604492 33.435001373291016,44.797000885009766 C41.099998474121094,36.31100082397461 45,23.944000244140625 45,7.644999980926514 C45,7.644999980926514 45,-57.5 45,-57.5 C45,-57.5 26.27400016784668,-57.5 26.27400016784668,-57.5 C26.27400016784668,-57.5 26.27400016784668,8.619999885559082 26.27400016784668,8.619999885559082 C26.27400016784668,19.374000549316406 23.988000869750977,27.523000717163086 19.75200080871582,32.900001525878906 C15.515999794006348,38.277000427246094 8.826000213623047,40.88199996948242 -0.1340000033378601,40.88199996948242 C-9.093999862670898,40.88199996948242 -15.616000175476074,38.277000427246094 -19.851999282836914,32.900001525878906 C-24.08799934387207,27.523000717163086 -26.207000732421875,19.374000549316406 -26.207000732421875,8.619999885559082 C-26.207000732421875,8.619999885559082 -26.207000732421875,-57.5 -26.207000732421875,-57.5z"/></g></g><g clip-path="url(#__lottie_element_4)" style="display: block;" transform="matrix(1,0,0,1,-671,0)" opacity="1"><g mask="url(#__lottie_element_7_2)" style="display: block;"><g transform="matrix(1,0,0,1,1000,1000)" opacity="1"><g opacity="1" transform="matrix(2,0,0,2,0,0)"><path fill="rgb(255,255,255)" fill-opacity="1" d=" M62.5,-63 C62.5,-63 62.5,63 62.5,63 C62.5,63 -62.5,63 -62.5,63 C-62.5,63 -62.5,-63 -62.5,-63 C-62.5,-63 62.5,-63 62.5,-63z"/></g></g></g></g></g></svg>